# xmcd
#
# Track frame offsets:
#	150
#	27495
#	54285
#
# Disc length: 1005 seconds
#
# Revision: 1
# Processed by: cddbd v1.5.1PL0 Copyright (c) Steve Scherf et al.
# Submitted via: CDex 1.50Beta5
#
DISCID=1d03eb03
DTITLE=Peace - キラキラヒカル。
DYEAR=1900
DGENRE=Pop-Punk
TTITLE0=Winter Love Season
TTITLE1=冬の唄
TTITLE2=仰げば尊し
EXTD=
EXTT0=
EXTT1=
EXTT2=
PLAYORDER=
